<svg width="192" height="202" viewBox="0 0 192 202" fill="none" xmlns="http://www.w3.org/2000/svg">
<path d="M177.613 127.167C166.363 127.598 154.725 112.127 154.725 102.482C154.725 92.8372 166.363 75.3611 177.613 75.792C188.333 76.2026 191.13 92.8372 191.13 102.482C191.13 107.219 193.087 117.223 191.13 122.09C189.103 127.131 183.067 126.958 177.613 127.167Z" fill="white"/>
<path d="M126.789 180.572C116.859 170.679 124.249 156.878 136.423 144.749C148.597 132.619 160.945 126.753 170.875 136.647C180.805 146.541 178.986 164.395 166.812 176.524C154.638 188.654 136.719 190.466 126.789 180.572Z" fill="white"/>
<path d="M31.5608 82.0154C41.5773 83.0274 43.5687 95.8067 42.1162 110.078C40.6637 124.349 36.3173 134.707 26.3008 133.695C16.2843 132.683 0.29639 128.125 1.7489 113.854C3.20142 99.5833 21.5444 81.0034 31.5608 82.0154Z" fill="white"/>
<path d="M69.9318 26.8806C75.6 14.3597 103.852 9.7744 119.258 16.698C134.665 23.6216 124.926 33.3526 119.258 45.8735C113.59 58.3944 100.392 63.4958 86.769 53.9863C73.1456 44.4768 64.2637 39.4015 69.9318 26.8806Z" fill="white"/>
<path d="M111.398 195.288C118.414 188.718 116.969 172.61 113.78 165.197C109.499 155.244 94.6062 159.809 86.9918 165.198C79.5298 170.478 75.6696 177.083 76.1124 182.157C76.5552 187.231 77.9673 191.532 82.5609 196.964C87.5907 202.912 103.178 202.986 111.398 195.288Z" fill="white"/>
<path d="M30.4721 72.8698C37.0243 80.5507 45.5643 76.0325 49.7814 74.9827C53.9984 73.9329 57.8661 73.6294 59.0414 73.0829C65.9826 69.8549 64.7561 58.6256 62.8302 53.9078C60.9043 49.1901 55.8204 38.4714 50.8923 33.3384C45.9642 28.2054 33.7495 37.7408 27.9433 48.4222C22.0136 59.3308 25.2303 66.725 30.4721 72.8698Z" fill="white"/>
<path d="M23.094 147.05C27.1612 137.736 36.7515 135.804 46.8207 137.394C61.4805 139.709 71.6089 156.986 70.6871 166.865C69.7652 176.745 67.5647 186.35 52.132 184.008C36.6993 181.666 35.1858 175.2 29.212 165.337C25.3081 158.892 19.9751 154.193 23.094 147.05Z" fill="white"/>
<path d="M148.5 31.1459C156.67 30.5481 160.835 37.8303 166.703 43.5266C176.18 52.7265 175.316 62.1378 166.703 67.119C158.09 72.1003 140.497 82.6949 133.462 68.8102C126.466 55.0029 130.409 48.5345 133.411 43.6087L133.461 43.526C136.469 38.5898 142.345 31.5961 148.5 31.1459Z" fill="white"/>
<path d="M126.938 107.676L123.633 106.844C112.543 104.053 103.824 94.4198 101.409 82.3006L100.281 76.6156C100.237 76.3929 100.094 76.19 99.8771 76.0435C99.6606 75.897 99.385 75.8164 99.1 75.8164C98.815 75.8164 98.5394 75.897 98.3229 76.0435C98.1064 76.19 97.9633 76.3929 97.9195 76.6156L96.7923 82.3006C94.3868 94.4198 85.668 104.053 74.5686 106.844L71.2901 107.676C71.0492 107.737 70.8392 107.858 70.6902 108.019C70.5412 108.181 70.4609 108.376 70.4609 108.576C70.4609 108.776 70.5412 108.971 70.6902 109.133C70.8392 109.295 71.0492 109.415 71.2901 109.476L74.5935 110.308C85.684 113.101 94.4046 122.734 96.8172 134.852L97.9444 140.538C97.9882 140.761 98.1313 140.964 98.3478 141.11C98.5642 141.257 98.8399 141.337 99.1249 141.337C99.4099 141.337 99.6855 141.257 99.902 141.11C100.118 140.964 100.262 140.761 100.305 140.538L101.434 134.852C103.84 122.734 112.557 113.101 123.658 110.308L126.938 109.476C127.179 109.415 127.389 109.295 127.538 109.133C127.687 108.971 127.767 108.776 127.767 108.576C127.767 108.376 127.687 108.181 127.538 108.019C127.389 107.858 127.179 107.737 126.938 107.676Z" fill="white"/>
</svg>
