<svg width="34" height="39" viewBox="0 0 34 39" fill="none" xmlns="http://www.w3.org/2000/svg">
<path d="M33.3256 18.6117L31.4109 18.1257C24.986 16.4951 19.935 10.8677 18.5364 3.78794L17.8823 0.466855C17.8569 0.336802 17.774 0.218274 17.6486 0.132663C17.5232 0.047052 17.3636 0 17.1984 0C17.0333 0 16.8737 0.047052 16.7482 0.132663C16.6228 0.218274 16.5399 0.336802 16.5145 0.466855L15.8615 3.78794C14.468 10.8677 9.41708 16.4951 2.98703 18.1257L1.08778 18.6117C0.948232 18.6476 0.826548 18.7179 0.740234 18.8124C0.65392 18.9069 0.607422 19.0207 0.607422 19.1376C0.607422 19.2545 0.65392 19.3684 0.740234 19.4629C0.826548 19.5574 0.948232 19.6276 1.08778 19.6635L3.00145 20.1495C9.42635 21.7809 14.4783 27.4083 15.876 34.4873L16.529 37.8092C16.5544 37.9393 16.6372 38.0578 16.7627 38.1434C16.8881 38.229 17.0478 38.2761 17.2129 38.2761C17.378 38.2761 17.5376 38.229 17.6631 38.1434C17.7885 38.0578 17.8713 37.9393 17.8967 37.8092L18.5508 34.4873C19.9443 27.4083 24.9942 21.7809 31.4253 20.1495L33.3256 19.6635C33.4651 19.6276 33.5868 19.5574 33.6731 19.4629C33.7594 19.3684 33.8059 19.2545 33.8059 19.1376C33.8059 19.0207 33.7594 18.9069 33.6731 18.8124C33.5868 18.7179 33.4651 18.6476 33.3256 18.6117Z" fill="white"/>
</svg>
