<svg width="260" height="66" viewBox="0 0 260 66" fill="none" xmlns="http://www.w3.org/2000/svg">
<path d="M46.849 59.5062L37.3675 56.9565L24.646 53.5375L4.1444 48.0297C2.3877 47.5571 0.581563 48.6044 0.113304 50.3664C-0.357863 52.1284 0.686267 53.9371 2.44006 54.4097L11.9245 56.9594L2.44006 59.5091C0.683359 59.9817 -0.357863 61.7904 0.113304 63.5524C0.584472 65.3144 2.3877 66.3588 4.1444 65.8862L24.6431 60.3784L45.1418 65.8862C46.8985 66.3588 48.7046 65.3115 49.1729 63.5524C49.644 61.7904 48.6028 59.9788 46.8461 59.5091" fill="white"/>
<path d="M46.8492 54.4097C48.6059 53.9371 49.6471 52.1255 49.176 50.3664C48.7048 48.6044 46.9016 47.56 45.1449 48.0326L32.624 51.3962L45.3455 54.8152L46.8492 54.4126V54.4097Z" fill="white"/>
<path d="M39.1503 28.1165C37.8997 23.691 34.8255 20.0328 30.7973 18.0053C28.1012 16.1499 25.3672 14.1808 23.6512 10.5984C21.7927 6.72136 22.4093 2.77431 23.3459 0C21.7927 0.624293 20.3618 1.47905 19.0879 2.52343C15.4582 5.50778 13.1401 10.0412 13.1401 15.1201C13.1401 16.6634 13.3554 18.157 13.7538 19.5719C13.7625 19.566 13.7684 19.5602 13.7771 19.5544C15.2197 24.4408 18.2735 26.4799 20.9871 29.0617C22.9474 30.9287 24.7303 33.0788 25.597 36.7924C26.0042 38.2161 26.2194 39.7214 26.2194 41.2733C26.2194 41.3696 26.2194 41.463 26.2165 41.5563C26.4172 46.2356 24.8524 48.6773 24.771 48.7999H24.7768C33.1618 48.1639 39.764 41.1391 39.764 32.5653C39.764 31.0221 39.5488 29.5285 39.1503 28.1136" fill="white"/>
<path d="M21.7551 41.0633C21.5137 36.3432 19.0416 32.2269 15.3857 29.7385C12.6575 27.7023 10.7961 24.5487 9.99342 21.1122C9.52225 21.6285 8.65844 22.7721 8.0942 24.6596C7.87316 25.4005 7.69866 26.2553 7.61431 27.2297C7.55323 27.9298 7.53578 28.6883 7.57941 29.5168C7.80336 33.6768 10.6391 35.9493 13.3061 38.0381C14.5335 39.0008 15.7289 39.9197 16.6159 40.9699C19.219 44.0418 20.5481 46.9795 20.7023 47.3354C20.711 47.3121 20.7168 47.2916 20.7256 47.2683C21.4236 45.5325 21.7988 43.6334 21.7726 41.6438C21.7726 41.4484 21.761 41.2558 21.7522 41.0633" fill="white"/>
<path d="M67.8624 45.4042C62.4934 45.4042 58.7473 42.2652 58.5146 38.2744H63.9622C64.1541 39.9022 65.6636 41.142 67.8246 41.142C69.9855 41.142 71.1082 40.1735 71.1082 38.9337C71.1082 35.0975 59.0178 37.5392 59.0178 29.6743C59.0178 26.1094 62.1851 23.2418 67.4785 23.2418C72.7718 23.2418 75.7821 26.0715 76.0933 30.3336H70.9162C70.7621 28.6679 69.4504 27.5418 67.3243 27.5418C65.3175 27.5418 64.2734 28.3557 64.2734 29.5955C64.2734 33.5105 76.134 31.0688 76.2881 38.9337C76.2881 42.6153 73.083 45.4042 67.8682 45.4042" fill="white"/>
<path d="M81.0351 28.0465H78.4873V23.5919H81.0351V18.2825H86.4826V23.5919H91.2728V28.0465H86.4826V38.429C86.4826 39.8614 87.0614 40.4828 88.7628 40.4828H91.2728V45.0541H87.8728C83.7807 45.0541 81.0351 43.3096 81.0351 38.3911V28.0465Z" fill="white"/>
<path d="M104.134 45.4042C97.9532 45.4042 93.2793 41.0662 93.2793 34.3215C93.2793 27.5768 98.1073 23.2418 104.288 23.2418C110.468 23.2418 115.296 27.5418 115.296 34.3215C115.296 41.1012 110.352 45.4042 104.134 45.4042ZM104.134 40.6782C106.993 40.6782 109.735 38.5865 109.735 34.3244C109.735 30.0623 107.071 27.9706 104.212 27.9706C101.353 27.9706 98.7646 30.0244 98.7646 34.3244C98.7646 38.6245 101.237 40.6782 104.134 40.6782Z" fill="white"/>
<path d="M123.397 45.057H117.99V23.5918H123.397V26.9233C124.749 24.715 126.988 23.2826 129.964 23.2826V28.9771H128.536C125.328 28.9771 123.397 30.2169 123.397 34.3623V45.057Z" fill="white"/>
<path d="M149.29 23.5919H155.046L141.798 55.2062H136.042L140.678 44.5144L132.101 23.5919H138.165L143.691 38.5866L149.29 23.5919Z" fill="white"/>
<path d="M169.3 23.7465C175.172 23.7465 179.419 27.854 179.419 34.517C179.419 41.18 175.172 45.3662 169.3 45.3662C164.705 45.3662 161.576 42.732 160.418 39.5551V54.9757H158.679V24.0178H160.418V29.5576C161.538 26.3428 164.705 23.7465 169.3 23.7465ZM169.03 25.2576C164.164 25.2576 160.415 28.9013 160.415 34.517C160.415 40.1327 164.161 43.8143 169.03 43.8143C173.899 43.8143 177.645 40.3281 177.645 34.517C177.645 28.7058 174.128 25.2576 169.03 25.2576Z" fill="white"/>
<path d="M185.605 16.3862H183.866V45.057H185.605V16.3862Z" fill="white"/>
<path d="M201.595 23.7465C206.229 23.7465 209.32 26.3428 210.478 29.5197V24.0178H212.217V45.057H210.478V39.5171C209.32 42.732 206.191 45.3662 201.595 45.3662C195.723 45.3662 191.474 41.1421 191.474 34.517C191.474 27.8919 195.723 23.7465 201.595 23.7465ZM201.825 25.2576C196.765 25.2576 193.251 28.7058 193.251 34.517C193.251 40.3281 196.767 43.8143 201.825 43.8143C206.883 43.8143 210.478 40.2115 210.478 34.517C210.478 28.8225 206.732 25.2576 201.825 25.2576Z" fill="white"/>
<path d="M226.588 23.7465C231.916 23.7465 235.395 26.652 236.206 31.0308H234.391C233.696 27.428 230.683 25.2197 226.591 25.2197C222.109 25.2197 218.209 28.204 218.209 34.517C218.209 40.8299 222.109 43.8551 226.591 43.8551C230.683 43.8551 233.696 41.6847 234.391 38.0439H236.206C235.395 42.344 231.919 45.3662 226.588 45.3662C220.678 45.3662 216.429 41.2587 216.429 34.517C216.429 27.7752 220.678 23.7465 226.588 23.7465Z" fill="white"/>
<path d="M250.228 45.3662C244.359 45.3662 240.031 41.2587 240.031 34.517C240.031 27.7752 244.28 23.7465 250.228 23.7465C256.525 23.7465 260 28.242 260 33.1225C260 34.0531 260 34.517 259.924 35.2142H241.808C241.962 41.0633 245.903 43.8551 250.228 43.8551C254.553 43.8551 257.336 41.6467 258.031 38.1606H259.846C259.035 42.306 255.597 45.3662 250.228 45.3662ZM241.808 33.7818H258.264C258.534 27.9327 254.439 25.2197 250.19 25.2197C245.941 25.2197 242 27.9706 241.808 33.7818Z" fill="white"/>
</svg>
