<svg width="197" height="39" viewBox="0 0 197 39" fill="none" xmlns="http://www.w3.org/2000/svg">
<path d="M32.6277 23.8592C30.6017 23.9368 28.5057 21.1506 28.5057 19.4136C28.5057 17.6766 30.6017 14.5293 32.6277 14.6069C34.5583 14.6808 35.0621 17.6766 35.0621 19.4136C35.0621 20.2668 35.4146 22.0683 35.0621 22.9448C34.697 23.8528 33.61 23.8216 32.6277 23.8592Z" fill="white"/>
<path d="M23.4745 33.4779C21.6861 31.6961 23.017 29.2107 25.2095 27.0262C27.402 24.8417 29.6259 23.7854 31.4142 25.5672C33.2026 27.349 32.875 30.5643 30.6825 32.7488C28.49 34.9333 25.2628 35.2597 23.4745 33.4779Z" fill="white"/>
<path d="M6.32456 15.7284C8.12847 15.9107 8.4871 18.2121 8.22551 20.7823C7.96392 23.3524 7.18117 25.218 5.37726 25.0357C3.57335 24.8534 0.694003 24.0326 0.955593 21.4624C1.21718 18.8923 4.52065 15.5462 6.32456 15.7284Z" fill="white"/>
<path d="M13.235 5.79846C14.2558 3.54351 19.3438 2.71772 22.1185 3.96463C24.8931 5.21153 23.1392 6.96402 22.1184 9.21896C21.0976 11.4739 18.7208 12.3927 16.2673 10.68C13.8138 8.96743 12.2142 8.0534 13.235 5.79846Z" fill="white"/>
<path d="M20.7028 36.1281C21.9663 34.9448 21.706 32.0439 21.1318 30.709C20.3607 28.9164 17.6786 29.7386 16.3073 30.709C14.9634 31.66 14.2682 32.8495 14.348 33.7633C14.4277 34.6771 14.682 35.4517 15.5093 36.43C16.4152 37.5012 19.2224 37.5144 20.7028 36.1281Z" fill="white"/>
<path d="M6.12866 14.0812C7.30867 15.4645 8.84669 14.6508 9.60615 14.4618C10.3656 14.2727 11.0622 14.218 11.2738 14.1196C12.5239 13.5383 12.303 11.5159 11.9562 10.6663C11.6093 9.81665 10.6938 7.88627 9.80623 6.96184C8.9187 6.03742 6.7189 7.75469 5.67324 9.67835C4.60533 11.6429 5.18464 12.9746 6.12866 14.0812Z" fill="white"/>
<path d="M4.79975 27.4407C5.53223 25.7633 7.2594 25.4152 9.0728 25.7016C11.7129 26.1186 13.537 29.23 13.371 31.0093C13.205 32.7886 12.8087 34.5183 10.0293 34.0965C7.24999 33.6748 6.97742 32.5103 5.90157 30.7341C5.1985 29.5734 4.23806 28.727 4.79975 27.4407Z" fill="white"/>
<path d="M27.3847 6.56695C28.8562 6.4593 29.6062 7.77079 30.663 8.79666C32.3698 10.4535 32.2141 12.1484 30.6629 13.0455C29.1118 13.9426 25.9434 15.8506 24.6765 13.3501C23.4166 10.8635 24.1266 9.69854 24.6673 8.81143L24.6763 8.79654C25.2181 7.90755 26.2762 6.64804 27.3847 6.56695Z" fill="white"/>
<path d="M23.5013 20.3496L22.9061 20.1997C20.9088 19.697 19.3386 17.9622 18.9037 15.7796L18.7004 14.7557C18.6925 14.7156 18.6668 14.6791 18.6278 14.6527C18.5888 14.6263 18.5391 14.6118 18.4878 14.6118C18.4365 14.6118 18.3868 14.6263 18.3479 14.6527C18.3089 14.6791 18.2831 14.7156 18.2752 14.7557L18.0722 15.7796C17.639 17.9622 16.0688 19.697 14.0698 20.1997L13.4794 20.3496C13.436 20.3606 13.3982 20.3823 13.3714 20.4114C13.3445 20.4405 13.3301 20.4756 13.3301 20.5117C13.3301 20.5477 13.3445 20.5828 13.3714 20.6119C13.3982 20.6411 13.436 20.6627 13.4794 20.6738L14.0743 20.8236C16.0717 21.3266 17.6422 23.0614 18.0767 25.2438L18.2797 26.2679C18.2876 26.308 18.3134 26.3445 18.3523 26.3709C18.3913 26.3973 18.441 26.4118 18.4923 26.4118C18.5436 26.4118 18.5933 26.3973 18.6323 26.3709C18.6712 26.3445 18.697 26.308 18.7049 26.2679L18.9082 25.2438C19.3414 23.0614 20.9113 21.3266 22.9106 20.8236L23.5013 20.6738C23.5447 20.6627 23.5826 20.6411 23.6094 20.6119C23.6362 20.5828 23.6507 20.5477 23.6507 20.5117C23.6507 20.4756 23.6362 20.4405 23.6094 20.4114C23.5826 20.3823 23.5447 20.3606 23.5013 20.3496V20.3496Z" fill="white"/>
<path d="M73.3458 28.6531C72.4999 28.6531 71.2219 28.6531 71.2219 25.2671V19.6838C72.366 19.6055 73.6416 19.4826 75.1055 19.2952L74.7164 16.3339C73.4081 16.5013 72.2601 16.6134 71.2219 16.6887V10.4849H67.8029V16.8192C66.7561 16.8238 65.8074 16.7969 64.8711 16.7693L64.7832 19.7545C65.6915 19.7806 66.609 19.8067 67.613 19.8067C67.6761 19.8067 67.7399 19.8067 67.8037 19.8067V25.2663C67.8037 29.6323 69.772 32.0369 73.3466 32.0369H75.8745V28.6524H73.3466L73.3458 28.6531Z" fill="white"/>
<path d="M95.125 32.0152V15.1909H98.1401L98.4023 17.0041C98.7915 16.5748 99.2413 16.2077 99.748 15.9082C100.55 15.4328 101.66 15.1917 103.045 15.1917H104.181V18.5025H102.472C101.056 18.5025 100.079 18.9464 99.4834 19.8595C98.86 20.8164 98.544 22.0229 98.544 23.4468V32.016H95.125V32.0152Z" fill="white"/>
<path d="M122.366 38.3004V15.1909H125.383L125.657 17.2045C127.026 15.7423 128.803 15.002 130.954 15.002C132.524 15.002 133.945 15.3468 135.18 16.0264C136.422 16.7107 137.407 17.7168 138.11 19.0147C138.807 20.3041 139.161 21.8478 139.161 23.6019C139.161 25.356 138.807 26.7744 138.11 28.0639C137.409 29.3595 136.421 30.3847 135.172 31.1105C133.925 31.8355 132.506 32.2026 130.954 32.2026C129.578 32.2026 128.381 31.9499 127.394 31.4515C126.777 31.1404 126.239 30.7549 125.783 30.298V38.2988H122.365L122.366 38.3004ZM130.7 18.0931C129.74 18.0931 128.873 18.322 128.124 18.7735C127.377 19.2236 126.79 19.8664 126.38 20.6843C125.965 21.5153 125.753 22.4768 125.753 23.5404C125.753 24.6041 125.965 25.6102 126.382 26.4634C126.792 27.302 127.38 27.9602 128.127 28.4195C128.875 28.8802 129.741 29.1137 130.7 29.1137C132.206 29.1137 133.383 28.6176 134.299 27.5977C135.215 26.5778 135.679 25.2338 135.679 23.6034C135.679 21.973 135.215 20.629 134.299 19.6091C133.383 18.5892 132.207 18.0931 130.7 18.0931V18.0931Z" fill="white"/>
<path d="M144.534 9.22021H141.115V32.0156H144.534V9.22021Z" fill="white"/>
<path d="M105.929 38.3098V35.1242H106.333C110.009 35.1242 110.453 34.5183 111.629 31.6875L105.537 15.1919H109.172L113.475 27.4298L117.628 15.1919H121.271L115.901 29.3966C115.838 29.6101 115.513 30.5954 114.901 32.2059C113.255 36.5435 112.018 38.3098 106.333 38.3098H105.929V38.3098Z" fill="white"/>
<path d="M84.7439 32.2042C83.1087 32.2042 81.6323 31.8379 80.3552 31.1145C79.0741 30.3887 78.0631 29.3642 77.351 28.0679C76.6428 26.7792 76.2832 25.2778 76.2832 23.6043C76.2832 21.9309 76.6428 20.4295 77.351 19.1408C78.0631 17.8444 79.0741 16.8191 80.3552 16.0942C81.6323 15.3707 83.1087 15.0044 84.7439 15.0044C86.3791 15.0044 87.8555 15.3707 89.1326 16.0942C90.4137 16.8199 91.4239 17.8444 92.1368 19.1408C92.8458 20.431 93.2046 21.9324 93.2046 23.6043C93.2046 25.2762 92.845 26.7792 92.1368 28.0679C91.4246 29.3642 90.4137 30.3887 89.1326 31.1145C87.8555 31.8379 86.3783 32.2042 84.7439 32.2042ZM84.7439 18.0932C83.7633 18.0932 82.8869 18.3267 82.139 18.7875C81.3911 19.2475 80.8035 19.9011 80.3933 20.7297C79.9769 21.5715 79.7652 22.5383 79.7652 23.6035C79.7652 24.6687 79.9761 25.6356 80.3933 26.4774C80.8035 27.306 81.3911 27.9596 82.139 28.4204C82.8877 28.8812 83.764 29.1146 84.7439 29.1146C85.7237 29.1146 86.6001 28.8812 87.3488 28.4204C88.0975 27.9596 88.6851 27.306 89.0945 26.4781C89.5116 25.6364 89.7225 24.6695 89.7225 23.6043C89.7225 22.5391 89.5116 21.573 89.0945 20.7305C88.6843 19.9018 88.0967 19.2491 87.3488 18.7883C86.6001 18.3275 85.7237 18.094 84.7439 18.094V18.0932Z" fill="white"/>
<path d="M162.917 32.0133C161.518 31.9948 159.711 31.68 158.851 29.6348C157.597 31.1977 155.45 32.2045 153.249 32.2045C151.361 32.2045 149.814 31.7537 148.654 30.8636C147.462 29.9505 146.857 28.6925 146.857 27.1235C146.857 25.3894 147.472 24.0362 148.685 23.1016C149.691 22.3259 151.09 21.8751 152.844 21.7599V21.7399L153.277 21.7384H153.311C153.378 21.7353 153.453 21.7338 153.527 21.7322L153.637 21.7292L153.874 21.7276C155.029 21.7223 157.432 21.7107 158.016 20.9788C158.126 20.8406 158.147 20.5972 158.079 20.2546C157.952 19.6932 157.678 19.2409 157.242 18.8815C156.608 18.3592 155.693 18.0943 154.523 18.0943C153.486 18.0943 152.624 18.3193 151.963 18.764C151.315 19.2002 150.927 19.7608 150.778 20.4789L150.711 20.7968H147.316L147.37 20.3514C147.574 18.6733 148.342 17.344 149.651 16.4001C150.936 15.4731 152.618 15.0039 154.65 15.0039C156.823 15.0039 158.536 15.54 159.743 16.5967C160.964 17.6665 161.582 19.2102 161.582 21.1847V26.6658C161.582 28.83 161.954 28.83 163.058 28.83H163.462V32.011L162.917 32.0148V32.0133ZM153.414 24.6959C150.631 24.7335 150.308 26.0092 150.308 26.9661C150.308 27.6373 150.569 28.1611 151.106 28.5666C151.668 28.992 152.452 29.2071 153.44 29.2071C154.921 29.2071 156.093 28.8246 156.925 28.0704C157.759 27.3147 158.164 26.3363 158.164 25.0799V24.2443C156.907 24.6398 155.454 24.699 154.167 24.699C154.06 24.699 153.415 24.6951 153.415 24.6951L153.414 24.6959Z" fill="white"/>
<path d="M62.6389 20.8037C61.2606 19.9074 59.4083 19.2585 57.1326 18.8737C55.755 18.6472 54.6576 18.4129 53.8708 18.1787C53.1283 17.9575 52.5174 17.6281 52.0559 17.2011C51.627 16.8048 51.4184 16.2572 51.4184 15.5276C51.4184 14.4993 51.7928 13.7251 52.5617 13.1599C53.3571 12.5762 54.4654 12.2798 55.8562 12.2798C57.247 12.2798 58.4113 12.6423 59.3328 13.3573C60.1258 13.9732 60.6185 14.7489 60.8426 15.7188H64.4375C64.3013 14.4824 63.8958 13.365 63.2281 12.3965C62.4895 11.3252 61.4715 10.4812 60.2013 9.88751C58.9429 9.29924 57.4812 9.00049 55.857 9.00049C54.3199 9.00049 52.9291 9.27696 51.7235 9.82223C50.5024 10.3752 49.5405 11.1685 48.8641 12.1807C48.1862 13.196 47.8422 14.3749 47.8422 15.6843C47.8422 17.7448 48.5676 19.2631 49.9981 20.1962C51.3546 21.0817 53.196 21.726 55.4733 22.1116C56.8493 22.3381 57.9521 22.5724 58.7522 22.8074C59.5024 23.0285 60.1212 23.3711 60.592 23.8257C61.0357 24.2542 61.2512 24.8295 61.2512 25.5836C61.2512 26.6289 60.8434 27.4222 60.0044 28.0082C59.1335 28.6164 57.9638 28.9251 56.5271 28.9251C54.9316 28.9251 53.6031 28.5058 52.5789 27.6795C51.5546 26.8539 51.0091 25.7787 50.911 24.3933L50.8845 24.0231H47.3457L47.3644 24.4386C47.4305 25.9477 47.8422 27.3085 48.5878 28.482C49.3365 29.6632 50.4051 30.5901 51.764 31.2383C53.1081 31.8796 54.6989 32.2052 56.4936 32.2052C58.0961 32.2052 59.5406 31.918 60.7866 31.352C62.049 30.7783 63.0483 29.9596 63.7557 28.9175C64.4663 27.8707 64.8274 26.665 64.8274 25.3333C64.8274 23.2728 64.0912 21.7491 62.6397 20.8052L62.6389 20.8037Z" fill="white"/>
<path d="M192.983 26.3609C192.716 27.1949 192.252 27.84 191.566 28.3239C190.823 28.8484 189.9 29.1141 188.824 29.1141C187.416 29.1141 186.312 28.691 185.45 27.8193C185.184 27.5513 184.949 27.2372 184.752 26.8862C184.422 26.2157 184.568 25.4224 184.874 25.0776C185.513 24.3588 187.431 24.3073 188.637 24.3035V24.3058H196.72C196.79 23.772 196.775 23.0478 196.774 22.7967C196.73 21.1885 196.359 19.9613 195.672 18.7571C194.978 17.5436 194.014 16.6036 192.804 15.9624C191.603 15.3265 190.21 15.0039 188.663 15.0039C187.117 15.0039 185.671 15.3664 184.445 16.0806C183.216 16.7972 182.249 17.8186 181.569 19.1157C180.894 20.4029 180.553 21.9127 180.553 23.6038C180.553 25.2949 180.906 26.7818 181.603 28.0796C182.305 29.3883 183.306 30.4151 184.578 31.1309C185.844 31.8436 187.336 32.2045 189.013 32.2045C190.948 32.2045 192.61 31.6508 193.952 30.5579C195.283 29.4743 196.13 28.062 196.471 26.3617H192.983L192.983 26.3609ZM184.288 21.5879L184.292 21.5648C184.45 20.4904 184.915 19.8376 185.711 19.1595C186.577 18.4207 187.553 18.062 188.696 18.062C189.971 18.062 191.035 18.4107 191.859 19.0988C192.588 19.7078 193.031 20.3207 193.206 21.3721H189.829L189.118 21.3705C187.41 21.3705 185.642 21.4289 184.208 22.0456C184.229 21.8943 184.256 21.7415 184.288 21.5886V21.5879Z" fill="white"/>
<path d="M175.99 26.3607C175.747 27.1686 175.313 27.7999 174.671 28.2837C173.94 28.8344 173.015 29.1132 171.922 29.1132C170.482 29.1132 169.347 28.6186 168.453 27.601C167.558 26.5811 167.103 25.2256 167.103 23.5721C167.103 21.9187 167.557 20.6016 168.453 19.5917C169.347 18.5833 170.482 18.0933 171.923 18.0933C172.973 18.0933 173.877 18.3729 174.608 18.9227C175.309 19.4503 175.767 20.1362 176.013 21.0101H179.49L179.486 20.9879C179.152 19.1401 178.317 17.6648 177.004 16.6019C175.695 15.5413 174.017 15.0029 172.019 15.0029C170.384 15.0029 168.914 15.3639 167.646 16.0766C166.375 16.7923 165.374 17.813 164.672 19.1109C163.974 20.3996 163.621 21.901 163.621 23.5721C163.621 25.2433 163.969 26.7485 164.654 28.0457C165.344 29.3535 166.328 30.3849 167.578 31.1115C168.824 31.8364 170.286 32.2035 171.923 32.2035C173.942 32.2035 175.635 31.6606 176.957 30.5885C178.23 29.5555 179.065 28.1324 179.444 26.3599H175.99L175.99 26.3607Z" fill="white"/>
</svg>
