<?xml version="1.0" encoding="UTF-8"?><svg id="Layer_1" xmlns="http://www.w3.org/2000/svg" viewBox="0 0 2482.88 452.32"><defs><style>.cls-1{fill:#fff;}</style></defs><path class="cls-1" d="M422.26,273.85c-27,1.04-54.92-36.22-54.92-59.45s27.93-65.32,54.92-64.29c25.73,.99,32.44,41.06,32.44,64.29,0,11.41,4.7,35.5,0,47.23-4.87,12.14-19.35,11.73-32.44,12.23Zm-121.97,128.64c-23.83-23.83-6.1-57.07,23.12-86.29,29.22-29.22,58.85-43.34,82.68-19.51,23.83,23.83,19.47,66.83-9.75,96.05-29.22,29.22-72.22,33.58-96.05,9.75ZM71.76,165.1c24.04,2.44,28.82,33.22,25.33,67.59-3.49,34.37-13.92,59.32-37.95,56.89-24.04-2.44-62.41-13.42-58.92-47.79,3.49-34.37,47.51-79.12,71.54-76.69ZM163.86,32.3C177.46,2.14,245.26-8.9,282.23,7.78c36.97,16.68,13.6,40.11,0,70.27-13.6,30.16-45.27,42.45-77.97,19.54-32.69-22.9-54.01-35.13-40.41-65.29Zm99.49,405.63c16.84-15.83,13.37-54.62,5.72-72.48-10.27-23.97-46.01-12.98-64.29,0-17.91,12.72-27.17,28.63-26.11,40.85,1.06,12.22,4.45,22.58,15.48,35.67,12.07,14.33,49.48,14.5,69.2-4.04ZM69.16,143.08c15.72,18.5,36.22,7.62,46.34,5.09,10.12-2.53,19.4-3.26,22.22-4.58,16.66-7.77,13.71-34.82,9.09-46.19-4.62-11.36-16.82-37.18-28.65-49.54-11.83-12.36-41.14,10.6-55.07,36.33-14.23,26.27-6.51,44.08,6.07,58.88Zm-17.72,178.67c9.76-22.43,32.78-27.09,56.94-23.26,35.18,5.58,59.49,47.19,57.27,70.98-2.21,23.8-7.49,46.93-44.53,41.29-37.04-5.64-40.67-21.22-55-44.97-9.37-15.52-22.17-26.84-14.68-44.05ZM352.4,42.58c19.61-1.44,29.6,16.1,43.68,29.82,22.74,22.16,20.67,44.83,0,56.83-20.67,12-62.89,37.52-79.77,4.07-16.79-33.26-7.33-48.84-.12-60.7l.12-.2c7.22-11.89,21.32-28.73,36.09-29.82Zm-51.76,184.33l-7.93-2c-26.61-6.72-47.54-29.93-53.33-59.12l-2.71-13.69c-.1-.54-.45-1.03-.97-1.38-.52-.35-1.18-.55-1.87-.55s-1.35,.19-1.86,.55c-.52,.35-.86,.84-.97,1.38l-2.7,13.69c-5.77,29.19-26.7,52.39-53.33,59.12l-7.87,2c-.58,.15-1.08,.44-1.44,.83-.36,.39-.55,.86-.55,1.34s.19,.95,.55,1.34c.36,.39,.86,.68,1.44,.83l7.93,2c26.62,6.73,47.54,29.93,53.33,59.11l2.7,13.7c.1,.53,.45,1.02,.97,1.38,.52,.35,1.18,.55,1.86,.55s1.35-.19,1.87-.55c.52-.35,.86-.84,.97-1.38l2.71-13.7c5.77-29.19,26.69-52.39,53.33-59.11l7.87-2c.58-.15,1.08-.44,1.44-.83,.36-.39,.55-.86,.55-1.34s-.19-.95-.55-1.34c-.36-.39-.86-.68-1.44-.83h0Z"/><path class="cls-1" d="M929.43,326.58v44.07h-32.48c-45.93,0-71.22-31.31-71.22-88.16v-71.09c-.82,0-1.64,0-2.45,0-12.89,0-24.69-.34-36.36-.68l1.13-38.87c12.03,.35,24.22,.7,37.67,.65V90.01h43.93v80.77c13.34-.98,28.09-2.44,44.9-4.62l5,38.56c-18.82,2.44-35.21,4.04-49.9,5.06v72.7c0,44.09,16.42,44.09,27.29,44.09h32.48Zm291.29,43.79v-111.58c0-18.54,4.06-34.25,12.07-46.71,7.65-11.89,20.21-17.67,38.4-17.67h21.96v-43.11h-14.6c-17.79,0-32.04,3.14-42.36,9.33-6.51,3.9-12.29,8.68-17.29,14.27l-3.37-23.61h-38.74v219.07h43.93Zm350.02,81.84v-104.18c5.85,5.94,12.77,10.97,20.69,15.02,12.68,6.49,28.07,9.78,45.74,9.78,19.94,0,38.18-4.79,54.2-14.22,16.04-9.45,28.74-22.8,37.75-39.67,8.96-16.78,13.5-36.33,13.5-58.1,0-22.85-4.54-42.94-13.5-59.73-9.03-16.91-21.69-30-37.65-38.91-15.86-8.85-34.13-13.34-54.29-13.34-27.64,0-50.48,9.64-68.06,28.68l-3.52-26.22h-38.77V452.2h43.92Zm109.4-243.39c11.76,13.28,17.73,30.78,17.73,52.01s-5.96,38.73-17.73,52.01c-11.77,13.28-26.9,19.74-46.25,19.74-12.32,0-23.45-3.04-33.06-9.04-9.61-5.99-17.15-14.56-22.42-25.47-5.36-11.1-8.08-23.91-8.08-38.06s2.71-26.37,8.06-37.19c5.26-10.65,12.8-19.02,22.4-24.88,9.63-5.88,20.77-8.86,33.1-8.86,19.36,0,34.48,6.46,46.25,19.74Zm131.49,161.55V73.54h-43.93V370.36h43.93Zm-490.84,81.96c73.06,0,88.94-23,110.1-79.48,7.86-20.97,12.03-33.81,12.84-36.58l69-184.96h-46.8l-53.37,159.35-55.29-159.35h-46.7l78.28,214.79c-15.13,36.86-20.83,44.75-68.06,44.75h-5.19v41.48h5.19Zm-221-93.69c16.46-9.45,29.45-22.8,38.6-39.67,9.11-16.79,13.72-36.35,13.72-58.12s-4.62-41.33-13.72-58.12c-9.16-16.88-22.14-30.22-38.6-39.67-16.41-9.42-35.38-14.19-56.39-14.19s-39.98,4.77-56.39,14.19c-16.46,9.44-29.45,22.79-38.6,39.67-9.1,16.78-13.72,36.34-13.72,58.12s4.62,41.35,13.72,58.12c9.15,16.88,22.14,30.23,38.6,39.67,16.41,9.42,35.38,14.19,56.39,14.19s39.98-4.77,56.39-14.19Zm-22.92-160.51c9.62,6,17.17,14.51,22.43,25.29,5.35,10.96,8.07,23.55,8.07,37.42s-2.71,26.46-8.07,37.42c-5.26,10.78-12.81,19.29-22.43,25.29-9.62,6-20.88,9.04-33.47,9.04s-23.86-3.04-33.47-9.04c-9.62-5.99-17.16-14.5-22.43-25.3-5.35-10.95-8.07-23.54-8.07-37.42s2.71-26.46,8.07-37.42c5.27-10.79,12.82-19.3,22.43-25.29,9.61-6,20.87-9.04,33.47-9.04s23.85,3.04,33.47,9.04Zm977.97,172.16v-41.42h-5.19c-14.18,0-18.96,0-18.96-28.18v-71.37c0-25.71-7.95-45.81-23.64-59.74-15.51-13.76-37.53-20.74-65.43-20.74-26.11,0-47.72,6.12-64.24,18.18-16.82,12.28-26.68,29.59-29.3,51.45l-.7,5.8h43.63l.85-4.14c1.92-9.35,6.9-16.65,15.23-22.33,8.5-5.79,19.57-8.72,32.89-8.72,15.04,0,26.79,3.45,34.94,10.25,5.6,4.68,9.12,10.57,10.75,17.88,.88,4.47,.61,7.64-.81,9.43-7.5,9.53-38.38,9.68-53.22,9.75l-3.04,.02-1.41,.04c-.96,.02-1.92,.04-2.78,.06h-.43s-5.57,.04-5.57,.04v.26c-22.55,1.5-40.51,7.37-53.44,17.47-15.58,12.17-23.48,29.79-23.48,52.37,0,20.43,7.76,36.81,23.08,48.7,14.91,11.59,34.77,17.46,59.04,17.46,28.28,0,55.87-13.11,71.99-33.46,11.04,26.63,34.26,30.73,52.24,30.97l7-.05Zm-119.43-95.18c16.55,0,35.2-.77,51.36-5.92v10.88c0,16.37-5.21,29.1-15.92,38.94-10.69,9.82-25.75,14.8-44.78,14.8-12.69,0-22.78-2.81-29.99-8.34-6.89-5.28-10.25-12.1-10.25-20.84,0-12.46,4.14-29.07,39.91-29.56,0,0,8.29,.05,9.66,.05Zm-1176.01-50.72c-17.71-11.67-41.51-20.12-70.75-25.13-17.7-2.95-31.8-6-41.91-9.05-9.54-2.88-17.39-7.17-23.32-12.73-5.51-5.16-8.19-12.29-8.19-21.79,0-13.39,4.81-23.47,14.69-30.83,10.22-7.6,24.46-11.46,42.33-11.46s32.83,4.72,44.67,14.03c10.19,8.02,16.52,18.12,19.4,30.75h46.19c-1.75-16.1-6.96-30.65-15.54-43.26-9.49-13.95-22.57-24.94-38.89-32.67-16.17-7.66-34.96-11.55-55.83-11.55-19.75,0-37.62,3.6-53.11,10.7-15.69,7.2-28.05,17.53-36.74,30.71-8.71,13.22-13.13,28.57-13.13,45.62,0,26.83,9.32,46.6,27.7,58.75,17.43,11.53,41.09,19.92,70.35,24.94,17.68,2.95,31.85,6,42.13,9.06,9.64,2.88,17.59,7.34,23.64,13.26,5.7,5.58,8.47,13.07,8.47,22.89,0,13.61-5.24,23.94-16.02,31.57-11.19,7.92-26.22,11.94-44.68,11.94-20.5,0-37.57-5.46-50.73-16.22-13.16-10.75-20.17-24.75-21.43-42.79l-.34-4.82h-45.44l.24,5.41c.85,19.65,6.14,37.37,15.72,52.65,9.62,15.38,23.35,27.45,40.81,35.89,17.27,8.35,37.71,12.59,60.77,12.59,20.59,0,39.15-3.74,55.16-11.11,16.22-7.47,29.06-18.13,38.15-31.7,9.13-13.63,13.77-29.33,13.77-46.67,0-26.83-9.46-46.67-28.11-58.96Zm1719.58,72.36c-4.38,22.14-15.26,40.53-32.37,54.64-17.24,14.23-38.59,21.44-63.45,21.44-21.55,0-40.73-4.7-56.99-13.98-16.34-9.32-29.21-22.68-38.23-39.73-8.95-16.91-13.49-36.52-13.49-58.28s4.4-41.68,13.06-58.44c8.73-16.89,21.16-30.19,36.95-39.52,15.75-9.3,33.98-14.02,54.2-14.02s37.77,4.2,53.2,12.48c15.54,8.35,27.94,20.6,36.85,36.39,8.83,15.68,13.6,31.66,14.17,52.6,0,3.27,.2,12.7-.7,19.65h-103.86v-.03c-15.49,.05-40.14,.72-48.35,10.08-3.93,4.49-5.81,14.82-1.57,23.55,2.54,4.57,5.55,8.66,8.97,12.15,11.09,11.34,25.27,16.86,43.35,16.86,13.84,0,25.69-3.46,35.24-10.29,8.81-6.29,14.77-14.69,18.21-25.56h44.82Zm-157.57-56.19c18.42-8.03,41.14-8.79,63.09-8.79l9.13,.02h43.39c-2.26-13.69-7.95-21.66-17.31-29.6-10.58-8.96-24.25-13.5-40.64-13.5-14.67,0-27.22,4.67-38.35,14.29-10.23,8.83-16.2,17.34-18.24,31.32l-.05,.3c-.42,2-.75,3.99-1.02,5.95Zm-105.59,56.19c-3.12,10.52-8.69,18.74-16.94,25.04-9.39,7.17-21.28,10.8-35.32,10.8-18.51,0-33.09-6.44-44.57-19.69-11.51-13.28-17.35-30.93-17.35-52.46s5.83-38.68,17.34-51.83c11.49-13.13,26.07-19.51,44.59-19.51,13.49,0,25.1,3.64,34.5,10.8,9,6.87,14.89,15.8,18.05,27.18h44.68l-.05-.29c-4.3-24.06-15.03-43.27-31.89-57.11-16.83-13.81-38.39-20.82-64.06-20.82-21,0-39.89,4.7-56.18,13.98-16.34,9.32-29.2,22.61-38.22,39.51-8.96,16.78-13.5,36.33-13.5,58.09s4.47,41.36,13.27,58.25c8.87,17.03,21.51,30.46,37.57,39.92,16.01,9.44,34.8,14.22,55.83,14.22,25.94,0,47.7-7.07,64.68-21.03,16.36-13.45,27.09-31.98,31.95-55.06h-44.37Z"/></svg>