<svg width="150" height="31" viewBox="0 0 150 31" fill="none" xmlns="http://www.w3.org/2000/svg">
<path d="M26.3458 20.6531C25.4999 20.6531 24.2219 20.6531 24.2219 17.2671V11.6838C25.366 11.6055 26.6416 11.4826 28.1055 11.2952L27.7164 8.33385C26.4081 8.50127 25.2601 8.6134 24.2219 8.68866V2.48486H20.8029V8.81922C19.7561 8.82383 18.8074 8.79695 17.8711 8.7693L17.7832 11.7545C18.6915 11.7806 19.609 11.8067 20.613 11.8067C20.6761 11.8067 20.7399 11.8067 20.8037 11.8067V17.2663C20.8037 21.6323 22.772 24.0369 26.3466 24.0369H28.8745V20.6524H26.3466L26.3458 20.6531Z" fill="white"/>
<path d="M48.125 24.0152V7.19092H51.1401L51.4023 9.00414C51.7915 8.57483 52.2413 8.20773 52.748 7.90822C53.5504 7.43283 54.6602 7.19169 56.0448 7.19169H57.1811V10.5025H55.472C54.0563 10.5025 53.0788 10.9464 52.4834 11.8595C51.86 12.8164 51.544 14.0229 51.544 15.4468V24.016H48.125V24.0152Z" fill="white"/>
<path d="M75.366 30.3004V7.19088H78.3834L78.6574 9.20454C80.0256 7.74229 81.8032 7.00195 83.9543 7.00195C85.5241 7.00195 86.9453 7.34678 88.1796 8.02645C89.4218 8.71072 90.4071 9.71679 91.1098 11.0147C91.8072 12.3041 92.1605 13.8478 92.1605 15.6019C92.1605 17.356 91.8072 18.7744 91.1098 20.0639C90.4086 21.3595 89.421 22.3847 88.1718 23.1105C86.925 23.8355 85.5062 24.2026 83.9536 24.2026C82.5783 24.2026 81.3813 23.9499 80.3937 23.4515C79.7773 23.1404 79.2387 22.7549 78.7834 22.298V30.2988H75.3652L75.366 30.3004ZM83.6998 10.0931C82.7402 10.0931 81.8732 10.322 81.1237 10.7735C80.3766 11.2236 79.7898 11.8664 79.3804 12.6843C78.9648 13.5153 78.7531 14.4768 78.7531 15.5404C78.7531 16.6041 78.9648 17.6102 79.3819 18.4634C79.7921 19.302 80.3797 19.9602 81.1268 20.4195C81.8748 20.8802 82.741 21.1137 83.6998 21.1137C85.2058 21.1137 86.3834 20.6176 87.2994 19.5977C88.2146 18.5778 88.6793 17.2338 88.6793 15.6034C88.6793 13.973 88.2154 12.629 87.2994 11.6091C86.3834 10.5892 85.2066 10.0931 83.6998 10.0931V10.0931Z" fill="white"/>
<path d="M97.5342 1.22021H94.1152V24.0156H97.5342V1.22021Z" fill="white"/>
<path d="M58.9286 30.3098V27.1242H59.3325C63.0091 27.1242 63.4527 26.5183 64.6295 23.6875L58.5371 7.19189H62.1717L66.4748 19.4298L70.6285 7.19189H74.2708L68.9007 21.3966C68.8376 21.6101 68.5131 22.5954 67.9014 24.2059C66.2545 28.5435 65.0178 30.3098 59.3325 30.3098H58.9286V30.3098Z" fill="white"/>
<path d="M37.7439 24.2042C36.1087 24.2042 34.6323 23.8379 33.3552 23.1145C32.0741 22.3887 31.0631 21.3642 30.351 20.0679C29.6428 18.7792 29.2832 17.2778 29.2832 15.6043C29.2832 13.9309 29.6428 12.4295 30.351 11.1408C31.0631 9.84441 32.0741 8.81915 33.3552 8.09417C34.6323 7.37072 36.1087 7.00439 37.7439 7.00439C39.3791 7.00439 40.8555 7.37072 42.1326 8.09417C43.4137 8.81992 44.4239 9.84441 45.1368 11.1408C45.8458 12.431 46.2046 13.9324 46.2046 15.6043C46.2046 17.2762 45.845 18.7792 45.1368 20.0679C44.4246 21.3642 43.4137 22.3887 42.1326 23.1145C40.8555 23.8379 39.3783 24.2042 37.7439 24.2042ZM37.7439 10.0932C36.7633 10.0932 35.8869 10.3267 35.139 10.7875C34.3911 11.2475 33.8035 11.9011 33.3933 12.7297C32.9769 13.5715 32.7652 14.5383 32.7652 15.6035C32.7652 16.6687 32.9761 17.6356 33.3933 18.4774C33.8035 19.306 34.3911 19.9596 35.139 20.4204C35.8877 20.8812 36.764 21.1146 37.7439 21.1146C38.7237 21.1146 39.6001 20.8812 40.3488 20.4204C41.0975 19.9596 41.6851 19.306 42.0945 18.4781C42.5116 17.6364 42.7225 16.6695 42.7225 15.6043C42.7225 14.5391 42.5116 13.573 42.0945 12.7305C41.6843 11.9018 41.0967 11.2491 40.3488 10.7883C39.6001 10.3275 38.7237 10.094 37.7439 10.094V10.0932Z" fill="white"/>
<path d="M115.917 24.0133C114.518 23.9948 112.711 23.68 111.851 21.6348C110.597 23.1977 108.45 24.2045 106.249 24.2045C104.361 24.2045 102.814 23.7537 101.654 22.8636C100.462 21.9505 99.8574 20.6925 99.8574 19.1235C99.8574 17.3894 100.472 16.0362 101.685 15.1016C102.691 14.3259 104.09 13.8751 105.844 13.7599V13.7399L106.277 13.7384H106.311C106.378 13.7353 106.453 13.7338 106.527 13.7322L106.637 13.7292L106.874 13.7276C108.029 13.7223 110.432 13.7107 111.016 12.9788C111.126 12.8406 111.147 12.5972 111.079 12.2546C110.952 11.6932 110.678 11.2409 110.242 10.8815C109.608 10.3592 108.693 10.0943 107.523 10.0943C106.486 10.0943 105.624 10.3193 104.963 10.764C104.315 11.2002 103.927 11.7608 103.778 12.4789L103.711 12.7968H100.316L100.37 12.3514C100.574 10.6733 101.342 9.34396 102.651 8.40011C103.936 7.47315 105.618 7.00391 107.65 7.00391C109.823 7.00391 111.536 7.53996 112.743 8.59671C113.964 9.66652 114.582 11.2102 114.582 13.1847V18.6658C114.582 20.83 114.954 20.83 116.058 20.83H116.462V24.011L115.917 24.0148V24.0133ZM106.414 16.6959C103.631 16.7335 103.308 18.0092 103.308 18.9661C103.308 19.6373 103.569 20.1611 104.106 20.5666C104.668 20.992 105.452 21.2071 106.44 21.2071C107.921 21.2071 109.093 20.8246 109.925 20.0704C110.759 19.3147 111.164 18.3363 111.164 17.0799V16.2443C109.907 16.6398 108.454 16.699 107.167 16.699C107.06 16.699 106.415 16.6951 106.415 16.6951L106.414 16.6959Z" fill="white"/>
<path d="M15.6389 12.8037C14.2606 11.9074 12.4083 11.2585 10.1326 10.8737C8.75502 10.6472 7.65765 10.4129 6.8708 10.1787C6.12833 9.95752 5.51738 9.62805 5.05586 9.20105C4.62702 8.80477 4.41844 8.2572 4.41844 7.52761C4.41844 6.49928 4.7928 5.72514 5.56174 5.15991C6.35714 4.57624 7.46541 4.27979 8.8562 4.27979C10.247 4.27979 11.4113 4.64228 12.3328 5.35728C13.1258 5.9732 13.6185 6.74887 13.8426 7.71884H17.4375C17.3013 6.48238 16.8958 5.36496 16.2281 4.39653C15.4895 3.32519 14.4715 2.48117 13.2013 1.88751C11.9429 1.29924 10.4812 1.00049 8.85698 1.00049C7.31987 1.00049 5.92909 1.27696 4.72353 1.82223C3.50241 2.37519 2.54045 3.16852 1.86413 4.18072C1.18625 5.196 0.842246 6.37486 0.842246 7.68428C0.842246 9.74479 1.5676 11.2631 2.99808 12.1962C4.35462 13.0817 6.19604 13.726 8.47328 14.1116C9.84928 14.3381 10.9521 14.5724 11.7522 14.8074C12.5024 15.0285 13.1212 15.3711 13.592 15.8257C14.0357 16.2542 14.2512 16.8295 14.2512 17.5836C14.2512 18.6289 13.8434 19.4222 13.0044 20.0082C12.1335 20.6164 10.9638 20.9251 9.52708 20.9251C7.9316 20.9251 6.60308 20.5058 5.57886 19.6795C4.55464 18.8539 4.00907 17.7787 3.91101 16.3933L3.88454 16.0231H0.345703L0.364382 16.4386C0.430536 17.9477 0.842246 19.3085 1.58784 20.482C2.33654 21.6632 3.40512 22.5901 4.764 23.2383C6.10809 23.8796 7.6989 24.2052 9.49361 24.2052C11.0961 24.2052 12.5406 23.918 13.7866 23.352C15.049 22.7783 16.0483 21.9596 16.7557 20.9175C17.4663 19.8707 17.8274 18.665 17.8274 17.3333C17.8274 15.2728 17.0912 13.7491 15.6397 12.8052L15.6389 12.8037Z" fill="white"/>
<path d="M145.983 18.3609C145.716 19.1949 145.252 19.84 144.566 20.3239C143.823 20.8484 142.9 21.1141 141.824 21.1141C140.416 21.1141 139.312 20.691 138.45 19.8193C138.184 19.5513 137.949 19.2372 137.752 18.8862C137.422 18.2157 137.568 17.4224 137.874 17.0776C138.513 16.3588 140.431 16.3073 141.637 16.3035V16.3058H149.72C149.79 15.772 149.775 15.0478 149.774 14.7967C149.73 13.1885 149.359 11.9613 148.672 10.7571C147.978 9.54364 147.014 8.60362 145.804 7.96235C144.603 7.32646 143.21 7.00391 141.663 7.00391C140.117 7.00391 138.671 7.3664 137.445 8.08062C136.216 8.79716 135.249 9.81858 134.569 11.1157C133.894 12.4029 133.553 13.9127 133.553 15.6038C133.553 17.2949 133.906 18.7818 134.603 20.0796C135.305 21.3883 136.306 22.4151 137.578 23.1309C138.844 23.8436 140.336 24.2045 142.013 24.2045C143.948 24.2045 145.61 23.6508 146.952 22.5579C148.283 21.4743 149.13 20.062 149.471 18.3617H145.983L145.983 18.3609ZM137.288 13.5879L137.292 13.5648C137.45 12.4904 137.915 11.8376 138.711 11.1595C139.577 10.4207 140.553 10.062 141.696 10.062C142.971 10.062 144.035 10.4107 144.859 11.0988C145.588 11.7078 146.031 12.3207 146.206 13.3721H142.829L142.118 13.3705C140.41 13.3705 138.642 13.4289 137.208 14.0456C137.229 13.8943 137.256 13.7415 137.288 13.5886V13.5879Z" fill="white"/>
<path d="M128.99 18.3607C128.747 19.1686 128.313 19.7999 127.671 20.2837C126.94 20.8344 126.015 21.1132 124.922 21.1132C123.482 21.1132 122.347 20.6186 121.453 19.601C120.558 18.5811 120.103 17.2256 120.103 15.5721C120.103 13.9187 120.557 12.6016 121.453 11.5917C122.347 10.5833 123.482 10.0933 124.923 10.0933C125.973 10.0933 126.877 10.3729 127.608 10.9227C128.309 11.4503 128.767 12.1362 129.013 13.0101H132.49L132.486 12.9879C132.152 11.1401 131.317 9.66477 130.004 8.60188C128.695 7.54129 127.017 7.00293 125.019 7.00293C123.384 7.00293 121.914 7.36388 120.646 8.07658C119.375 8.79234 118.374 9.81299 117.672 11.1109C116.974 12.3996 116.621 13.901 116.621 15.5721C116.621 17.2433 116.969 18.7485 117.654 20.0457C118.344 21.3535 119.328 22.3849 120.578 23.1115C121.824 23.8364 123.286 24.2035 124.923 24.2035C126.942 24.2035 128.635 23.6606 129.957 22.5885C131.23 21.5555 132.065 20.1324 132.444 18.3599H128.99L128.99 18.3607Z" fill="white"/>
</svg>
