<?xml version="1.0" standalone="no"?>
<!DOCTYPE svg PUBLIC "-//W3C//DTD SVG 20010904//EN"
 "http://www.w3.org/TR/2001/REC-SVG-20010904/DTD/svg10.dtd">
<svg version="1.0" xmlns="http://www.w3.org/2000/svg"
 width="1024.000000pt" height="1024.000000pt" viewBox="0 0 1024.000000 1024.000000"
 preserveAspectRatio="xMidYMid meet">
<metadata>
Created by potrace 1.14, written by Peter Selinger 2001-2017
</metadata>
<g transform="translate(0.000000,1024.000000) scale(0.100000,-0.100000)"
fill="#000000" stroke="none">
<path d="M0 5120 l0 -5120 5120 0 5120 0 0 5120 0 5120 -5120 0 -5120 0 0
-5120z m5105 3843 c-18 -48 -65 -261 -75 -347 -16 -122 -8 -353 15 -461 85
-404 298 -697 735 -1013 58 -41 154 -104 213 -139 265 -153 439 -317 613 -578
363 -545 379 -1272 40 -1849 -215 -366 -540 -632 -933 -764 -165 -56 -453
-112 -442 -86 3 5 19 41 37 79 78 164 112 366 112 655 0 229 -13 345 -59 528
-105 415 -237 618 -645 991 -382 350 -516 529 -620 830 -68 195 -80 277 -81
541 0 209 3 247 23 345 79 371 250 679 520 936 146 138 330 264 478 324 71 29
78 30 69 8z m-1395 -2398 c107 -339 296 -605 586 -823 420 -317 645 -758 645
-1267 0 -196 -15 -300 -67 -475 -42 -138 -38 -138 -104 -12 -145 276 -347 552
-513 700 -32 29 -134 113 -227 187 -319 254 -428 369 -524 553 -80 155 -115
347 -101 552 18 274 88 493 211 660 41 56 48 62 55 45 4 -11 21 -65 39 -120z
m-645 -2772 c33 -8 227 -60 430 -114 204 -55 647 -175 985 -266 338 -90 899
-241 1245 -334 1425 -384 1852 -498 1900 -509 118 -26 205 -92 258 -195 29
-55 32 -68 32 -155 0 -82 -4 -103 -26 -151 -36 -77 -87 -130 -161 -169 -51
-27 -76 -34 -138 -38 -83 -4 77 -45 -1712 437 l-628 169 -82 -24 c-46 -12
-362 -98 -703 -189 -341 -92 -811 -218 -1044 -281 -305 -82 -441 -114 -481
-114 -259 0 -433 271 -326 506 44 95 146 178 246 199 35 7 848 223 948 252 30
8 52 17 50 19 -2 2 -239 66 -526 143 -287 77 -537 148 -555 157 -86 45 -154
128 -181 223 -47 161 24 330 172 409 95 51 168 57 297 25z m4632 -5 c74 -27
146 -95 185 -176 30 -60 33 -75 33 -157 0 -76 -4 -99 -26 -146 -55 -116 -141
-178 -305 -220 l-91 -23 -549 148 c-302 82 -609 164 -682 184 -73 19 -130 38
-126 41 3 3 58 20 122 37 64 17 364 98 665 179 302 81 570 150 595 154 60 9
114 3 179 -21z"/>
</g>
</svg>
