<?xml version="1.0" standalone="no"?>
<!DOCTYPE svg PUBLIC "-//W3C//DTD SVG 20010904//EN"
 "http://www.w3.org/TR/2001/REC-SVG-20010904/DTD/svg10.dtd">
<svg version="1.0" xmlns="http://www.w3.org/2000/svg"
 width="1024.000000pt" height="1024.000000pt" viewBox="0 0 1024.000000 1024.000000"
 preserveAspectRatio="xMidYMid meet">
<metadata>
Created by potrace 1.14, written by Peter Selinger 2001-2017
</metadata>
<g transform="translate(0.000000,1024.000000) scale(0.100000,-0.100000)"
fill="#000000" stroke="none">
<path d="M0 5120 l0 -5120 5120 0 5120 0 0 5120 0 5120 -5120 0 -5120 0 0
-5120z m5430 3516 c246 -12 484 -87 646 -201 110 -79 153 -157 154 -278 0 -58
-7 -98 -26 -155 -35 -105 -335 -687 -394 -765 -94 -124 -217 -217 -348 -263
-146 -51 -283 -53 -440 -8 -124 36 -192 71 -352 179 -343 232 -510 372 -589
495 -58 90 -74 152 -69 264 10 196 110 367 283 483 174 117 388 192 685 239
55 9 274 21 315 17 17 -1 77 -5 135 -7z m1712 -667 c120 -25 178 -67 388 -279
227 -228 293 -307 348 -410 58 -108 75 -175 70 -279 -7 -152 -78 -263 -231
-364 -265 -175 -570 -303 -773 -327 -166 -18 -300 24 -402 127 -69 70 -107
140 -161 296 -55 161 -75 269 -68 382 12 200 130 434 317 629 189 196 337 261
512 225z m-3836 -38 c81 -37 230 -248 369 -521 113 -224 150 -318 169 -429 41
-240 -1 -445 -108 -537 -46 -39 -61 -44 -251 -79 -77 -14 -190 -41 -252 -60
-159 -48 -219 -58 -325 -53 -79 3 -103 9 -158 36 -175 84 -348 354 -366 573
-13 147 31 311 128 487 78 139 152 239 252 335 138 134 243 206 356 244 79 27
132 28 186 4z m1892 -1643 c5 -7 22 -74 37 -148 37 -188 67 -282 129 -407 95
-189 227 -342 388 -451 127 -86 242 -134 401 -167 80 -17 100 -32 80 -63 -5
-9 -56 -28 -114 -43 -177 -46 -284 -96 -415 -195 -142 -107 -262 -257 -350
-437 -55 -113 -75 -179 -117 -377 l-32 -155 -39 0 -39 0 -32 163 c-37 186 -68
279 -133 406 -85 165 -236 338 -381 435 -93 64 -232 126 -346 156 -125 32
-145 41 -145 60 0 22 38 42 105 55 381 73 709 375 843 775 26 78 55 205 77
340 8 49 21 65 50 65 12 0 27 -6 33 -12z m3055 -26 c200 -99 328 -399 357
-836 6 -83 18 -253 27 -377 26 -359 10 -480 -74 -570 -76 -81 -187 -109 -430
-109 -116 0 -148 4 -203 23 -306 105 -615 486 -671 825 -35 213 100 537 335
804 89 102 182 176 282 224 94 45 134 54 231 50 68 -2 92 -8 146 -34z m-5496
-232 c145 -67 235 -226 274 -485 27 -181 7 -565 -42 -805 -63 -310 -177 -509
-334 -586 -47 -22 -76 -29 -144 -32 -166 -8 -453 60 -628 148 -407 206 -479
560 -210 1034 114 202 334 451 515 585 96 70 245 147 323 167 77 19 170 10
246 -26z m4835 -1856 c109 -33 232 -121 317 -228 124 -156 182 -324 183 -536
3 -332 -131 -639 -392 -900 -251 -252 -564 -390 -885 -390 -246 0 -439 76
-601 235 -170 167 -219 359 -153 596 41 147 111 276 260 474 125 167 254 303
404 429 351 293 621 392 867 320z m-4467 -184 c139 -16 211 -37 333 -97 183
-89 307 -200 433 -388 76 -112 140 -244 175 -360 25 -81 28 -105 28 -235 -1
-351 -111 -582 -316 -662 -75 -30 -271 -36 -401 -14 -267 45 -441 130 -565
274 -67 78 -95 122 -206 316 -53 92 -130 217 -172 279 -92 137 -129 213 -144
296 -13 71 -7 120 23 201 107 291 409 435 812 390z m2382 -861 c71 -23 149
-87 188 -153 82 -140 136 -471 115 -699 -35 -383 -189 -567 -558 -669 -65 -18
-104 -22 -247 -22 -158 0 -176 2 -250 27 -109 36 -174 83 -251 180 -166 210
-241 502 -176 681 73 199 296 428 538 551 106 54 277 111 371 124 90 13 194 5
270 -20z"/>
</g>
</svg>
